<?xml version="1.0" encoding="UTF-8"?><svg xmlns="http://www.w3.org/2000/svg" xmlns:xlink="http://www.w3.org/1999/xlink" viewBox="0 0 1366 768"><defs><style>.cls-1{fill:#fff;}.cls-2{fill:#9bbebf;}.cls-3{fill:#9b9b2f;}.cls-4{fill:#6d9a63;}.cls-4,.cls-5{fill-rule:evenodd;}.cls-6{fill:url(#Dégradé_sans_nom_26);}.cls-7{fill:#725143;}.cls-8{fill:url(#Dégradé_sans_nom_25);}.cls-5{fill:#b4a373;}</style><linearGradient id="Dégradé_sans_nom_25" x1="521.99" y1="600.16" x2="602.41" y2="629.26" gradientUnits="userSpaceOnUse"><stop offset="0" stop-color="#725143"/><stop offset="1" stop-color="#4a2a30"/></linearGradient><linearGradient id="Dégradé_sans_nom_26" x1="813.38" y1="609.4" x2="753.64" y2="629.31" gradientUnits="userSpaceOnUse"><stop offset="0" stop-color="#725143"/><stop offset="1" stop-color="#4a2a30"/></linearGradient></defs><g id="fond1"><rect class="cls-2" width="1366" height="715"/><rect class="cls-3" y="689" width="1366" height="79"/></g><g id="volcan1"><path class="cls-7" d="m619.27,483.48c-2.12,7.86-15.01,44.7-19.77,58.02-5,14-19,43-26,61s-33,57-33,57c-2.5,5.5-9,15.25-15.88,25-6.87,9.75-14.12,19.5-18.12,25-6.86,9.43-21.06,24-24.98,27.97-29.23-.15-115.02-.97-115.02-.97,0,0-6,0-6-1,0-2,71-55,84-67s52-55,64-71,52-82,56-87c3.94-4.93,48.74-27.37,54.77-27.02Z"/><path class="cls-8" d="m672.46,737.5h-183.96c-1.65,0-4.03-.01-6.98-.03,3.92-3.97,18.12-18.54,24.98-27.97,4-5.5,11.25-15.25,18.12-25,6.88-9.75,13.38-19.5,15.88-25,0,0,26-39,33-57s21-47,26-61c4.76-13.32,17.65-50.16,19.77-58.02.08,0,.16.01.23.02,5,1,43,45,49,45-1,8,0,79,0,103,0,22.45,3.5,96.55,3.96,106Z"/><path class="cls-6" d="m860.79,736.53c-48.54.55-94.09.97-97.29.97h-91.04c-.46-9.45-3.96-83.55-3.96-106,0-24-1-95,0-103,6,0,90-45,94-45,.04,0,.08.01.12.02,2.32,18.41,13.94,56.22,16.88,68.98,3,13,17,63,21,73s25,55,36,74c9.53,16.46,21.31,32.93,24.29,37.03Z"/><path class="cls-7" d="m980.5,734.5c-.54.54-62.23,1.38-119.71,2.03-2.98-4.1-14.76-20.57-24.29-37.03-11-19-32-64-36-74s-18-60-21-73c-2.94-12.76-14.56-50.57-16.88-68.98,4.54,1.14,39.94,63.07,45.88,72.98,6,10,37,54,45,61s44,51,63,66,65,50,64,51Z"/></g><g id="volcan2"><path class="cls-1" d="m1019.84,219.64c-5.5,9.47-15.11,13.67-24.44,11.77-4.44,9.63-17.05,16.58-31.91,16.58s-27.05-6.72-31.68-16.1c-4.67,6.35-14.36,10.71-25.56,10.71-15.76,0-28.53-8.64-28.53-19.29,0-.49.03-.98.08-1.47-3.16-1.02-5.95-3.01-8.07-5.96-6.92-9.69-3.96-26.17,6.62-36.82,9.89-9.96,22.93-11.29,30.24-3.49.24-.44.5-.87.76-1.3,8.46-13.62,24.52-16.61,35.86-6.68,1.79,1.57,3.36,3.36,4.69,5.33,8.67-7.26,20.28-7.74,28.9-.19,2.03,1.78,3.75,3.88,5.15,6.21,8.37-7.98,20.84-8.63,30.55-.67,11.74,9.62,15.02,28.14,7.33,41.37Z"/><path class="cls-1" d="m1125.85,152.89c-4.85,7.38-13.35,10.66-21.58,9.18-3.92,7.51-15.06,12.93-28.18,12.93s-23.88-5.24-27.98-12.55c-4.12,4.95-12.68,8.35-22.57,8.35-13.91,0-25.19-6.73-25.19-15.04,0-.38.02-.77.07-1.14-2.79-.8-5.25-2.34-7.12-4.65-6.11-7.55-3.49-20.41,5.84-28.71,8.73-7.77,20.25-8.8,26.7-2.72.21-.34.44-.68.67-1.01,7.47-10.62,21.65-12.96,31.67-5.21,1.58,1.22,2.96,2.62,4.14,4.15,7.65-5.66,17.91-6.04,25.52-.15,1.79,1.39,3.31,3.02,4.55,4.84,7.39-6.22,18.4-6.73,26.98-.52,10.36,7.5,13.26,21.94,6.47,32.26Z"/><path class="cls-1" d="m514.29,113.44c-8.87,12.54-24.39,18.1-39.45,15.59-7.16,12.76-27.52,21.97-51.51,21.97s-43.65-8.9-51.14-21.32c-7.53,8.41-23.17,14.19-41.25,14.19-25.43,0-46.04-11.44-46.04-25.56,0-.65.04-1.3.13-1.94-5.1-1.36-9.6-3.98-13.02-7.9-11.17-12.83-6.38-34.67,10.68-48.78,15.96-13.19,37.01-14.95,48.81-4.62.39-.58.8-1.15,1.23-1.72,13.66-18.04,39.57-22.01,57.88-8.84,2.89,2.07,5.41,4.45,7.56,7.05,13.99-9.62,32.73-10.26,46.64-.26,3.28,2.36,6.06,5.13,8.32,8.22,13.5-10.57,33.63-11.43,49.31-.89,18.94,12.74,24.24,37.27,11.83,54.8Z"/></g><g id="decor_antique"><polygon class="cls-1" points="1188.57 738.58 1188.58 738.58 1188.58 738.58 1188.57 738.58"/><path class="cls-4" d="m235.77,621.13s.99-10.14,3.03-12.32c2.04-2.18,3.24,15.7,3.24,19.58s.21,3.94.21,3.94c0,0,2.25-.35,2.18,5.42-.07,5.77.14,11.55-.28,13.17-.42,1.62-1.06,2.54-1.06,2.54l-1.13,9.65s1.62,7.32,2.53,11.2c.92,3.87,2.04,7.54,1.34,11.69-.7,4.15-.92,4.51-.92,4.51,0,0,.35,3.38.49,6.83.14,3.45-.35,6.41-.35,6.41,0,0,2.89,1.13,3.24,3.17.35,2.04,1.97,15.07-1.41,17.75s-9.3,7.82-12.68.92c-3.38-6.9-2.46-22.39-1.55-28.73.92-6.34,2.96-7.89,2.96-7.89,0,0-2.18-19.58-.85-23.45,1.34-3.87,1.55-4.58,1.55-4.58,0,0-1.69-8.8-.85-11.2.85-2.39,1.69-2.61,1.69-2.61l.14-9.58s-2.32.21-1.55-16.41Z"/><path class="cls-5" d="m240.03,660.95l.25,40v33.52s-3.11.14-3.11.14l1.03-32.11.92-33.73s-.13-7.89.22-9.65c.34-1.76.72.7.68,1.83Z"/><path class="cls-4" d="m26.67,641.87l-.98,36.9s3.53-.08,3.36,13.69c-.16,13.77-.66,45.26-2.95,46.57-2.3,1.31,0,8.2-1.97,9.18-1.97.98-12.79,6.56-13.61-5.58-.82-12.13-.33-34.76,1.31-35.09,1.64-.33,4.92-4.43,4.92-4.43,0,0-2.79-8.04-2.3-15.74.49-7.71,3.61-20.17,3.61-20.17,0,0,.53-11.97,1.02-15.33.49-3.36,2.75-2.71,2.75-2.71,0,0,.82-11.4,4.84-7.3Z"/><path class="cls-5" d="m20.11,718.33l1.44,48.87-4.24.08s1.79-42.88,1.87-46.65c.09-3.77.6-9.35.92-2.3Z"/><path class="cls-4" d="m971.13,658.74l-.36,13.4s1.28-.03,1.22,4.97c-.06,5-.24,16.44-1.07,16.91-.83.48,0,2.98-.71,3.33-.71.36-4.64,2.38-4.94-2.02-.3-4.41-.12-12.62.48-12.74.6-.12,1.79-1.61,1.79-1.61,0,0-1.01-2.92-.83-5.72.18-2.8,1.31-7.32,1.31-7.32,0,0,.19-4.35.37-5.57.18-1.22,1-.98,1-.98,0,0,.3-4.14,1.76-2.65Z"/><path class="cls-5" d="m968.75,686.5l.52,17.75-1.54.03s.65-15.57.68-16.94c.03-1.37.22-3.39.33-.83Z"/><path class="cls-4" d="m1221,648.17l-7.76,51.35s-2.4,22.16.92,29.74c3.32,7.57,6.65,9.6,6.65,9.6,0,0,8.5-1.48,10.53-8.5,2.03-7.02,1.85-33.06,0-49.5-1.85-16.44-4.06-31.31-5.17-33.89-1.11-2.59-4.43-3.05-5.17,1.2Z"/><path class="cls-5" d="m1224.69,698.5l1.2,49.13-6.19-.74,3.14-47.56s-.05-2.63.69-2.95c.74-.32,1.02-.32,1.15,2.12Z"/><path class="cls-4" d="m986.45,663.81l-3.65,24.17s-1.13,10.43.43,14c1.56,3.56,3.13,4.52,3.13,4.52,0,0,4-.7,4.96-4,.96-3.3.87-15.56,0-23.3-.87-7.74-1.91-14.74-2.43-15.95-.52-1.22-2.09-1.43-2.43.57Z"/><path class="cls-5" d="m988.19,687.5l.57,23.13-2.91-.35,1.48-22.39s-.02-1.24.33-1.39c.35-.15.48-.15.54,1Z"/><path class="cls-4" d="m339.65,627.31l-5.64,37.34s-1.75,16.12.67,21.62c2.42,5.51,4.84,6.98,4.84,6.98,0,0,6.18-1.07,7.66-6.18,1.48-5.1,1.34-24.04,0-35.99-1.34-11.95-2.95-22.77-3.76-24.65-.81-1.88-3.22-2.22-3.76.87Z"/><path class="cls-5" d="m342.34,663.9l.87,35.73-4.5-.54,2.28-34.58s-.03-1.91.5-2.15c.54-.24.74-.24.84,1.54Z"/><path class="cls-4" d="m1339.01,681.6s-.45-7.34.9-9.59c1.35-2.25,2.25-2.4,2.25-2.4,0,0-1.2-8.09.45-9.74,1.65-1.65,5.1-1.8,5.55,3.9.45,5.7.6,7.94.6,7.94,0,0,3.45-3,3.6,7.34.15,10.34-.6,17.69-.6,17.69,0,0,4.5,6.74,4.5,11.54v6.45s3.45,1.65,3.3,14.09c-.15,12.44-3,16.94-5.7,17.54-2.7.6-3.15,8.69-5.7,8.99-2.55.3-9.14,6.3-12.59-6.45-3.45-12.74.3-23.68.3-23.68,0,0-1.8-11.39-1.2-15.44.6-4.05,2.4-7.04,2.4-7.04,0,0-2.25-19.79,1.95-21.13Z"/><path class="cls-5" d="m1345.08,722.82l1.87,44.67-5.51.07s2.32-39.2,2.44-42.64c.11-3.45.79-8.54,1.2-2.1Z"/><path class="cls-4" d="m871.43,653.25s2.27-16.56,5.22-17.02c2.95-.45,2.27,20.87,2.27,20.87,0,0-3.18,1.59-.45,7.49,2.72,5.9.23,11.12.23,11.12,0,0,3.86,13.84,1.81,17.7-2.04,3.86-2.27,4.31-2.27,4.31,0,0,6.13,25.18,3.18,34.26-2.95,9.07-9.76,14.75-12.93,14.75s-8.85-4.54-7.71-22.46c1.13-17.92,2.04-30.85,3.86-35.62,1.82-4.76,5.22-8.17,5.22-8.17,0,0-3.86-8.17-3.18-16.79.68-8.62,4.76-10.44,4.76-10.44Z"/><path class="cls-5" d="m872,718.59l-.7,45.79-5.88.15,3.6-43.71s.83-6.95,1.4-10.75,1.54,1.43,1.58,8.51Z"/></g></svg>